<?xml version="1.0" encoding="UTF-8"?>
<svg width="80px" height="80px" viewBox="0 0 80 80" version="1.1" xmlns="http://www.w3.org/2000/svg" xmlns:xlink="http://www.w3.org/1999/xlink">
    <!-- Generator: Sketch 45.1 (43504) - http://www.bohemiancoding.com/sketch -->
    <title>Shape</title>
    <desc>Created with Sketch.</desc>
    <defs></defs>
    <g id="Page-1" stroke="none" stroke-width="1" fill="none" fill-rule="evenodd">
        <g id="管理3" transform="translate(-833.000000, -134.000000)" fill="#FFFFFF">
            <g id="Rounded-Rectangle-1" transform="translate(773.000000, 88.000000)">
                <path d="M111.20725,85.98575 L137.64625,112.42575 C140.74425,115.52275 140.74425,120.54675 137.64625,123.64675 C134.54725,126.74575 129.52325,126.74575 126.42425,123.64675 L99.98525,97.20775 L73.54625,123.64675 C70.44725,126.74575 65.42325,126.74575 62.32425,123.64675 C59.22525,120.54675 59.22525,115.52275 62.32425,112.42575 L88.76325,85.98575 L62.32425,59.54675 C59.22525,56.44675 59.22525,51.42275 62.32425,48.32275 C65.42325,45.22575 70.44725,45.22575 73.54625,48.32275 L99.98525,74.76375 L126.42425,48.32275 C129.52325,45.22575 134.54725,45.22575 137.64625,48.32275 C140.74425,51.42275 140.74425,56.44675 137.64625,59.54675 L111.20725,85.98575 Z" id="Shape"></path>
            </g>
        </g>
    </g>
</svg>