<?xml version="1.0" encoding="UTF-8"?>
<svg width="26px" height="26px" viewBox="0 0 26 26" version="1.1" xmlns="http://www.w3.org/2000/svg" xmlns:xlink="http://www.w3.org/1999/xlink">
    <!-- Generator: Sketch 45.1 (43504) - http://www.bohemiancoding.com/sketch -->
    <title>Search Icon</title>
    <desc>Created with Sketch.</desc>
    <defs></defs>
    <g id="nav_bar" stroke="none" stroke-width="1" fill="none" fill-rule="evenodd">
        <g id="nav_bar_搜索" transform="translate(-32.000000, -71.000000)" fill="#8E8E93">
            <path d="M49.9966103,87.0054839 C50.1529928,87.0776553 50.2995085,87.1781882 50.4284027,87.3070824 L57.3070824,94.185762 C57.8928688,94.7715485 57.8928688,95.7212959 57.3070824,96.3070824 C56.7212959,96.8928688 55.7715485,96.8928688 55.185762,96.3070824 L48.3070824,89.4284027 C48.1781882,89.2995085 48.0776553,89.1529928 48.0054839,88.9966103 C46.3332243,90.2544818 44.2536747,91 42,91 C36.4771525,91 32,86.5228475 32,81 C32,75.4771525 36.4771525,71 42,71 C47.5228475,71 52,75.4771525 52,81 C52,83.2536747 51.2544818,85.3332243 49.9966103,87.0054839 Z M42,89 C46.418278,89 50,85.418278 50,81 C50,76.581722 46.418278,73 42,73 C37.581722,73 34,76.581722 34,81 C34,85.418278 37.581722,89 42,89 Z" id="Search-Icon"></path>
        </g>
    </g>
</svg>