<?xml version="1.0" encoding="UTF-8"?>
<svg width="33px" height="33px" viewBox="0 0 33 33" version="1.1" xmlns="http://www.w3.org/2000/svg" xmlns:xlink="http://www.w3.org/1999/xlink">
    <!-- Generator: Sketch 45.1 (43504) - http://www.bohemiancoding.com/sketch -->
    <title>Shape</title>
    <desc>Created with Sketch.</desc>
    <defs></defs>
    <g id="编辑器" stroke="none" stroke-width="1" fill="none" fill-rule="evenodd">
        <g id="编辑器弹框" transform="translate(-599.000000, -114.000000)" fill="#999999">
            <g id="插入音乐" transform="translate(151.000000, 94.000000)">
                <g id="Rounded-Rectangle-1">
                    <path d="M464.76325,36.039 L479.96625,51.226 C480.16125,51.421 480.16125,51.737 479.96625,51.932 C479.77125,52.127 479.45425,52.127 479.25925,51.932 L464.05625,36.746 L448.85325,51.932 C448.65825,52.127 448.34125,52.127 448.14625,51.932 C447.95125,51.737 447.95125,51.421 448.14625,51.226 L463.34925,36.039 L448.14625,20.853 C447.95125,20.658 447.95125,20.342 448.14625,20.147 C448.34125,19.951 448.65825,19.951 448.85325,20.147 L464.05625,35.333 L479.25925,20.147 C479.45425,19.951 479.77125,19.951 479.96625,20.147 C480.16125,20.342 480.16125,20.658 479.96625,20.853 L464.76325,36.039 Z" id="Shape"></path>
                </g>
            </g>
        </g>
    </g>
</svg>